<?xml version="1.0" encoding="utf-8"?>
<!-- Generator: Adobe Illustrator 19.1.0, SVG Export Plug-In . SVG Version: 6.00 Build 0)  -->
<svg version="1.1" id="Layer_1" xmlns="http://www.w3.org/2000/svg" xmlns:xlink="http://www.w3.org/1999/xlink" x="0px" y="0px"
	 viewBox="0 0 792 320" style="enable-background:new 0 0 792 320;" xml:space="preserve">
<style type="text/css">
	.st0{fill:#6EBE45;}
	.st1{fill:none;stroke:#6EBE45;stroke-width:3;stroke-miterlimit:10;}
</style>
<g>
	<path class="st0" d="M285.8,100.5c8.7-9.6,34.2-17.1,50.1-17.1l-6.3,25.8c-24,0-43.8,18.3-43.8,41.4v73.2H260V86.4h25.100.5z"/>
	<path class="st0" d="M488.3,155.1c0,19.2-7.5,37.2-21.3,51c-13.5,13.5-31.5,21-50.7,21s-37.2-7.5-51-21c-13.5-13.8-21-31.8-21-51
		s7.5-37.2,21-51c13.8-13.5,31.8-20.7,51-20.7s37.2,7.2,50.7,20.7C480.8,117.9,488.3,135.9,488.3,155.1z M462.5,155.1
		c0-25.5-20.7-45.9-46.2-45.9c-25.5,0-46.2,20.4-46.2,45.9c0,25.5,20.7,46.2,46.2,46.2C441.8,201.3,462.5,180.6,462.5,155.1z"/>
	<path class="st0" d="M515,86.4h25.8v149.7c0,17.4-6.6,33.3-18.6,45.3c-9.3,8.7-23.1,15.9-35.4,18.9l-3.6-25.5
		c7.8-1.8,15-5.7,21-11.1l0.3-0.3c6.3-6.3,9.9-15,10.5-24V86.4z M510.8,47.1c0-9.3,7.5-16.8,17.1-16.8c9.3,0,16.8,7.5,16.8,16.8
		c0,9.3-7.5,17.1-16.8,17.1C518.3,64.2,510.8,56.4,510.8,47.1z"/>
	<path class="st1" d="M660.8,151.2l60.9,72.6h-33.6l-44.4-52.5l-44.1,52.5H566l60.9-72.6l-54.3-64.8h33.9l37.2,44.7l37.5-44.7h33.6
		L660.8,151.2z"/>
</g>
<path class="st0" d="M157,78.9c2.4,0,4.9,0,7.3,0c0.1,0,0.3,0.1,0.4,0.1c3.9,0.2,7.7,0.7,11.5,1.6c14.8,3.3,27.5,10.4,37.9,21.5
	c11.8,12.6,18.3,27.5,19.8,44.6c0.1,0.7,0.1,1.5,0.2,2.2c0,2.4,0,4.8,0,7.2c0,0.1-0.1,0.3-0.1,0.4c-0.2,3.7-0.7,7.4-1.4,11
	c-2.9,13.9-9.4,25.9-19.2,36.1c-7.1,7.3-15.4,12.9-24.9,16.7c-9.4,3.8-19.1,5.6-29.2,5.4c-5-0.1-10-0.6-15-1.8
	c-10.6-2.4-20.3-6.9-28.8-13.7c-0.1-0.1-0.2-0.2-0.5-0.3c0,0.4,0,0.7,0,1c0,28.2,0,56.3,0,84.5c0,0.3,0,0.6-0.1,0.9
	c-9.2,0-18.4,0-27.6,0c0-0.2-0.1-0.4-0.1-0.6c0-37.9,0-75.7,0-113.6c0-0.2,0-0.4,0-0.6c0.2,0,0.3-0.1,0.3-0.1
	c5.5-1.1,10.9-2.1,16.4-3.2c5.3-1,10.6-2.1,15.9-3.1c0.4-0.1,0.7-0.2,0.9,0.3c2.9,5.1,6.6,9.5,11.1,13.2c7.9,6.3,16.9,9.8,27,10.2
	c8,0.3,15.5-1.4,22.5-5.1c8.8-4.6,15.4-11.4,19.9-20.2c0.2-0.4,0.2-1,0.4-1.5c-4.3,0.8-8.5,1.6-12.6,2.5c-7.3,1.4-14.6,2.8-21.9,4.3
	c-0.3,0.1-0.5,0-0.7-0.2c-6.5-7.5-13-14.9-19.5-22.4c-0.3-0.3,0.2-2.1,0.3-2.4c1-2.8,1.4-4.1,2.4-6.9c2.2-6.5,4.5-13,6.7-19.6
	c0.1-0.3,0.3-0.5,0.7-0.6c2.3-0.4,4.5-0.9,6.8-1.3c8.1-1.6,16.1-3.2,24.2-4.7c1.1-0.2,2.2-0.4,3.4-0.7c-0.3-0.4-0.6-0.8-0.9-1.2
	c-0.1-0.2-0.3-0.3-0.4-0.5c-10.7-8.9-23-12.5-36.8-10.5c-10.3,1.5-19.2,6.2-26.3,13.8c-6.8,7.2-10.7,15.8-12,25.6
	c-0.1,0.4-0.2,0.6-0.6,0.7c-8.3,1.6-16.7,3.2-25,4.9c-0.7,0.1-1.4,0.3-2.2,0.4c0-0.3,0-0.5,0-0.7c0.2-2.8,0.2-5.6,0.5-8.4
	c0.7-6.5,2.3-12.9,4.8-18.9c4.8-11.7,12-21.6,21.8-29.5c11.8-9.6,25.2-15,40.3-16.2C155.6,79,156.3,78.9,157,78.9z"/>
</svg>
